 http://img841.imageshack.us/img841/363/lizardboy2011.jpg

Country.......: USA
Genre.........: Sci-Fi, Horror, Comedy, Action
Date release..: 16.08.2011 [World]
Director......: Paul Della Pelle
Writers.......: Paul Della Pelle, Bruce Brown
Duration......: 98 min.
More..........: http://www.imdb.com/title/tt1474456
Trailer.......: http://www.imdb.com/video/wab/vi2143067161
Trailer.......:

Pilot :
If you were a brilliant geneticist, working on a secret government genetic engineering project, and your fiancee dumped you because your sperm were not viable, what would you do to resolve your mid-life crisis? Dr. Gino Conti creates his own son by combining reptilian and human DNA, but discovers fatherhood an extraordinary challenge when his son's anger management issues include eating people.

Cats :
Pete Punito   	 ...  	Gino
Damon Gregory 	... 	Hoffmeyer
Steven Zeigler 	... 	Carlo
Mark Strano 	... 	Frankie
Rachel Riley 	... 	Julie
Miranda Allgood 	... 	Rachel
Bruce Brown 	... 	Sheriff Johnson
Domiziano Arcangeli 	... 	Mendoza
John Dicus 	... 	Crotchett
Ryan Gray 	... 	Jenkins
Marcia Loring 	... 	Aunt Rosie
Serena Lorien 	... 	Margaret Pennylily
Patrick Ayotte 	... 	Wilkins
Cynthia Bennett 	... 	Midwife
Justin Bonaccorso 	... 	Deputy Bobby Thomas 

Data Technical :
!!! SAMPLE !!!
Audio.....: English
Subtitles.: None
Format                           : AVI
Format/Info                      : Audio Video Interleave
File size                        : 1.17 GiB
Duration                         : 1h 38mn
Overall bit rate                 : 1 700 Kbps
Writing application              : Lavf52.13.0
Writing library                  : VirtualDub build 32842/release
Video
ID                               : 0
Format                           : MPEG-4 Visual
Format profile                   : Simple@L1
Format settings, BVOP            : No
Format settings, QPel            : No
Format settings, GMC             : No warppoints
Format settings, Matrix          : Default (H.263)
Codec ID                         : XVID
Codec ID/Hint                    : XviD
Duration                         : 1h 38mn
Bit rate                         : 1 496 Kbps
Width                            : 720 pixels
Height                           : 432 pixels
Display aspect ratio             : 16:9
Frame rate                       : 25.000 fps
Color space                      : YUV
Chroma subsampling               : 4:2:0
Bit depth                        : 8 bits
Scan type                        : Progressive
Bits/(Pixel*Frame)               : 0.192
Stream size                      : 1.03 GiB (88%)
Writing library                  : Lavc51.54.0
Audio
ID                               : 1
Format                           : MPEG Audio
Format version                   : Version 1
Format profile                   : Layer 3
Mode                             : Joint stereo
Mode extension                   : MS Stereo
Codec ID                         : 55
Codec ID/Hint                    : MP3
Duration                         : 1h 38mn
Bit rate mode                    : Constant
Bit rate                         : 192 Kbps
Channel(s)                       : 2 channels
Sampling rate                    : 44.1 KHz
Stream size                      : 135 MiB (11%)
Alignment                        : Aligned on interleaves
Interleave, duration             : 26 ms (0.65 video frame)
Interleave, preload duration     : 522 ms
Writing library                  : LAME3.98 (beta)

Screen : 
http://img820.imageshack.us/img820/7934/lizardboy2011s1.jpg 
http://img851.imageshack.us/img851/5203/lizardboy2011s2.jpg 
http://img717.imageshack.us/img717/1432/lizardboy2011s3.jpg 
http://img854.imageshack.us/img854/7083/lizardboy2011s4.jpg 
http://img843.imageshack.us/img843/5993/lizardboy2011s5.jpg